<svg width="41" height="40" viewBox="0 0 41 40" fill="none" xmlns="http://www.w3.org/2000/svg">
<circle cx="20.5" cy="20" r="20" fill="#F79A38"/>
<path d="M26.7376 22.7928C27.2624 22.2681 27.3373 21.5185 26.8876 20.7689C26.5128 20.1692 25.8381 19.8694 25.0885 20.0193C24.7887 20.0942 24.4888 20.2442 24.189 20.469C21.8652 22.0432 18.7168 21.9683 16.393 20.3941C16.2431 20.3191 16.0932 20.2442 15.9433 20.1692C15.1187 19.7944 14.2941 19.9443 13.8444 20.6939C13.3196 21.4435 13.3946 22.2681 14.0692 22.9428C14.2192 23.0927 14.3691 23.1676 14.444 23.3176L14.519 23.3925C15.5685 24.2171 16.8428 24.7418 18.4919 24.9667L17.5174 25.9412C16.6929 26.7658 15.7933 27.6653 14.9688 28.4899C14.7439 28.7148 14.444 29.0896 14.444 29.6143C14.444 30.2889 14.8188 30.9636 15.4935 31.2634C15.7184 31.4133 15.9433 31.4133 16.1681 31.4133C16.5429 31.4133 16.9927 31.2634 17.2926 30.8886C18.417 29.7642 19.3165 28.8647 20.216 27.9651C20.291 27.8902 20.291 27.8902 20.291 27.8902C20.291 27.8902 20.366 27.8902 20.366 27.9651C20.9656 28.6398 21.6403 29.2395 22.24 29.9141C22.5398 30.214 22.8397 30.5138 23.1395 30.8137C23.5143 31.1885 23.8142 31.3384 24.2639 31.3384C24.9386 31.4134 25.6882 30.9636 25.988 30.2889C26.2879 29.6892 26.138 28.9396 25.6132 28.4899C24.8636 27.7403 24.114 26.9157 23.2894 26.1661L22.0151 24.8917C22.6898 24.8168 23.4394 24.6669 24.114 24.367C25.2384 23.9922 26.063 23.4675 26.7376 22.7928Z" fill="white"/>
<path d="M20.291 20.6939C23.5143 20.6939 26.138 18.1452 26.138 14.9219C26.138 13.3477 25.5383 11.8485 24.4138 10.7241C23.2894 9.59969 21.8652 9 20.366 9C17.1426 9 14.594 11.6236 14.519 14.772C14.519 16.3462 15.1187 17.7704 16.2431 18.8948C17.2926 20.0942 18.7168 20.6939 20.291 20.6939ZM18.6419 13.1978C19.0916 12.7481 19.6913 12.5232 20.291 12.5232C21.6403 12.5232 22.6148 13.5726 22.6148 14.847C22.6148 16.1963 21.5653 17.1707 20.291 17.1707C18.9417 17.1707 17.9672 16.1213 17.9672 14.847C17.9672 14.2473 18.1921 13.6476 18.6419 13.1978Z" fill="white"/>
<path d="M26.7376 22.7928C27.2624 22.2681 27.3373 21.5185 26.8876 20.7689C26.5128 20.1692 25.8381 19.8694 25.0885 20.0193C24.7887 20.0942 24.4888 20.2442 24.189 20.469C21.8652 22.0432 18.7168 21.9683 16.393 20.3941C16.2431 20.3191 16.0932 20.2442 15.9433 20.1692C15.1187 19.7944 14.2941 19.9443 13.8444 20.6939C13.3196 21.4435 13.3946 22.2681 14.0692 22.9428C14.2192 23.0927 14.3691 23.1676 14.444 23.3176L14.519 23.3925C15.5685 24.2171 16.8428 24.7418 18.4919 24.9667L17.5174 25.9412C16.6929 26.7658 15.7933 27.6653 14.9688 28.4899C14.7439 28.7148 14.444 29.0896 14.444 29.6143C14.444 30.2889 14.8188 30.9636 15.4935 31.2634C15.7184 31.4133 15.9433 31.4133 16.1681 31.4133C16.5429 31.4133 16.9927 31.2634 17.2926 30.8886C18.417 29.7642 19.3165 28.8647 20.216 27.9651C20.291 27.8902 20.291 27.8902 20.291 27.8902C20.291 27.8902 20.366 27.8902 20.366 27.9651C20.9656 28.6398 21.6403 29.2395 22.24 29.9141C22.5398 30.214 22.8397 30.5138 23.1395 30.8137C23.5143 31.1885 23.8142 31.3384 24.2639 31.3384C24.9386 31.4134 25.6882 30.9636 25.988 30.2889C26.2879 29.6892 26.138 28.9396 25.6132 28.4899C24.8636 27.7403 24.114 26.9157 23.2894 26.1661L22.0151 24.8917C22.6898 24.8168 23.4394 24.6669 24.114 24.367C25.2384 23.9922 26.063 23.4675 26.7376 22.7928Z" fill="white"/>
</svg>
