<svg width="41" height="40" viewBox="0 0 41 40" fill="none" xmlns="http://www.w3.org/2000/svg">
<g clip-path="url(#clip0_49_333)">
<path d="M20.5 40C31.5457 40 40.5 31.0457 40.5 20C40.5 8.95432 31.5457 0 20.5 0C9.45432 0 0.5 8.95432 0.5 20C0.5 31.0457 9.45432 40 20.5 40Z" fill="#34AADF"/>
<path d="M8.82376 19.8265C8.82376 19.8265 18.8238 15.7225 22.2919 14.2774C23.6214 13.6994 28.1301 11.8496 28.1301 11.8496C28.1301 11.8496 30.211 11.0404 30.0376 13.0057C29.9798 13.815 29.5174 16.6473 29.055 19.7109C28.3613 24.0462 27.6098 28.786 27.6098 28.786C27.6098 28.786 27.4942 30.1155 26.5116 30.3467C25.529 30.5779 23.9104 29.5375 23.6214 29.3062C23.3902 29.1329 19.2862 26.5317 17.7833 25.26C17.3786 24.9132 16.9162 24.2196 17.841 23.4103C19.922 21.5028 22.4075 19.1329 23.9104 17.63C24.6041 16.9363 25.2977 15.3178 22.4075 17.2831C18.3035 20.1155 14.2573 22.7745 14.2573 22.7745C14.2573 22.7745 13.3324 23.3525 11.5983 22.8322C9.86416 22.3121 7.84104 21.6184 7.84104 21.6184C7.84104 21.6184 6.45384 20.7514 8.82376 19.8265Z" fill="white"/>
</g>
<defs>
<clipPath id="clip0_49_333">
<rect width="40" height="40" fill="white" transform="translate(0.5)"/>
</clipPath>
</defs>
</svg>
