<svg width="41" height="40" viewBox="0 0 41 40" fill="none" xmlns="http://www.w3.org/2000/svg">
<circle cx="20.5" cy="20" r="20" fill="#EC1A27"/>
<path d="M30.5 18.1414C30.5 17.6566 30.427 17.0909 30.427 16.4444C30.354 15.798 30.281 15.1515 30.208 14.5859C30.062 13.9394 29.8431 13.4545 29.4051 13.0505C29.0401 12.6465 28.5292 12.404 28.0183 12.3232C26.3394 12.0808 23.8577 12 20.5 12C17.1423 12 14.5876 12.0808 12.9817 12.3232C12.4708 12.404 11.9599 12.6465 11.5949 13.0505C11.2299 13.4545 10.938 13.9394 10.792 14.5859C10.646 15.1515 10.573 15.7172 10.573 16.4444C10.5 17.0909 10.5 17.6566 10.5 18.1414C10.5 18.6263 10.5 19.1919 10.5 20C10.5 20.8081 10.5 21.4545 10.5 21.8586C10.5 22.3434 10.573 22.9091 10.573 23.5556C10.646 24.202 10.719 24.8485 10.792 25.4141C10.938 26.0606 11.1569 26.5455 11.5949 26.9495C11.9599 27.3535 12.4708 27.596 12.9817 27.6768C14.6606 27.9192 17.1423 28 20.5 28C23.8577 28 26.4124 27.9192 28.0183 27.6768C28.5292 27.596 29.0401 27.3535 29.4051 26.9495C29.7701 26.5455 30.062 26.0606 30.208 25.4141C30.354 24.8485 30.427 24.2828 30.427 23.5556C30.5 22.9091 30.5 22.3434 30.5 21.8586C30.5 21.3737 30.5 20.8081 30.5 20C30.5 19.1919 30.5 18.5454 30.5 18.1414ZM24.0189 20.6465L19.2525 23.6061C19.1795 23.6869 19.0335 23.7677 18.8875 23.7677C18.7416 23.7677 18.6686 23.7677 18.5226 23.6869C18.3036 23.5252 18.1576 23.2828 18.1576 22.9596V16.9596C18.1576 16.6364 18.3036 16.3939 18.5226 16.2323C18.7416 16.0707 19.0335 16.0707 19.2525 16.2323L24.0189 19.1919C24.2379 19.3535 24.3839 19.596 24.3839 19.8384C24.3839 20.0808 24.2379 20.4848 24.0189 20.6465Z" fill="white"/>
</svg>
